<?xml version="1.0" encoding="iso-8859-1"?>
<!-- Generator: Adobe Illustrator 16.0.0, SVG Export Plug-In . SVG Version: 6.00 Build 0)  -->
<!DOCTYPE svg PUBLIC "-//W3C//DTD SVG 1.1//EN" "http://www.w3.org/Graphics/SVG/1.1/DTD/svg11.dtd">
<svg version="1.1" xmlns="http://www.w3.org/2000/svg" xmlns:xlink="http://www.w3.org/1999/xlink" x="0px" y="0px" width="36px"
	 height="36px" viewBox="0 0 36 36" style="enable-background:new 0 0 36 36;" xml:space="preserve">
<g id="read">
	<rect style="fill:#262626;" width="36" height="36"/>
</g>
<g id="unread">
	<rect x="3" y="3" style="fill:#76B852;" width="30" height="30"/>
</g>
<g id="Link" style="display:none;">
	<path style="display:inline;fill:#F1F2F2;" d="M10.799,19.2H22.32l-2.771,2.772c-0.237,0.236-0.349,0.519-0.349,0.828
		c0,0.591,0.487,1.2,1.2,1.2c0.318,0,0.597-0.115,0.828-0.349l4.775-4.775C26.2,18.68,26.401,18.438,26.401,18
		s-0.167-0.648-0.388-0.868l-4.785-4.785c-0.231-0.231-0.51-0.348-0.828-0.348c-0.713,0-1.2,0.609-1.2,1.2
		c0,0.31,0.111,0.592,0.348,0.828L22.32,16.8H10.799c-0.662,0-1.2,0.538-1.2,1.2C9.599,18.663,10.137,19.2,10.799,19.2z"/>
</g>
<g id="Lock" style="display:none;">
	<path style="display:inline;fill:#F1F2F2;" d="M13.706,14.367v2.313h-0.991c-0.729,0-1.321,0.59-1.321,1.321v6.606
		c0,0.729,0.592,1.32,1.321,1.32h10.571c0.729,0,1.32-0.591,1.32-1.32V18c0-0.731-0.591-1.321-1.32-1.321h-0.992v-2.313
		c0-2.372-1.922-4.294-4.294-4.294S13.706,11.995,13.706,14.367z M15.358,16.679v-2.313c0-1.46,1.182-2.643,2.642-2.643
		c1.461,0,2.644,1.183,2.644,2.643v2.313H15.358z M16.679,20.312c0-0.73,0.591-1.321,1.321-1.321c0.729,0,1.321,0.591,1.321,1.321
		c0,0.467-0.24,0.876-0.604,1.11c0,0,0.13,0.78,0.274,1.698c0,0.273-0.222,0.495-0.496,0.495h-0.991
		c-0.274,0-0.495-0.222-0.495-0.495l0.274-1.698C16.92,21.188,16.679,20.778,16.679,20.312z"/>
</g>
<g id="hot">
	<g>
		<path style="fill:#D2623E;" d="M10.742,28.36c-0.202-0.257-1.162-1.23-0.747-2.286c0,0-0.98,0.767-0.612,1.875
			c-0.169-0.246-1.782-1.088-1.648-4.193c0,0-0.101,0.101-0.257,0.276v7.965c0.889-0.024,1.558-0.293,1.558-0.293
			S11.619,30.407,10.742,28.36z"/>
		<path style="fill:#EC6C51;" d="M5.816,27.539c0,0,0.254,2.056,1.104,2.385c0,0-1.699-0.412-2.039-2.468
			c-0.085,0.247-2.402,2.482,0.843,4.208c0.598,0.275,1.216,0.349,1.753,0.334v-7.966C6.955,24.625,5.816,26.081,5.816,27.539z"/>
	</g>
</g>
<g id="mine">
	<circle style="fill:#76B852;stroke:#262626;stroke-width:2;stroke-miterlimit:10;" cx="31" cy="5" r="3"/>
</g>
<g id="bubble">
	<g transform="translate(96 96)">
		<path style="fill:#FFFFFF;" d="M-77.999-84.988c-4.641,0-8.403,2.847-8.403,6.359c0,1.996,1.218,3.784,3.128,4.949
			c-0.285,0.748-0.704,1.596-1.319,2.465c1.47,0.632,3.145-0.328,4.328-1.293c0.719,0.155,1.481,0.237,2.266,0.237
			c4.635,0,8.4-2.848,8.4-6.358C-69.599-82.14-73.364-84.987-77.999-84.988L-77.999-84.988z"/>
	</g>
</g>
</svg>
